<svg xmlns="http://www.w3.org/2000/svg" viewBox="0 0 34 34" class="global-nav__logo">
  <title>LinkedIn</title>
  <g>
    <path d="M34,2V32a2,2,0,0,1-2,2H2A2,2,0,0,1,0,32V2A2,2,0,0,1,2,0H32A2,2,0,0,1,34,2ZM10.09,13H5.44v16.6H10.09Zm-2.32-2.9a2.59,2.59,0,1,0-2.53-2.58A2.56,2.56,0,0,0,7.77,10.1ZM28.61,13H24.48v2.41H24.4c-.58-1.1-2-2.28-4.11-2.28-4.39,0-5.21,2.89-5.21,6.64v7.1h4.66V19.8c0-1.56.03-3.55,2.17-3.55,2.17,0,2.21,1.71,2.21,3.65v6.7h4.65V19.43C31.77,15.72,30.42,13,28.61,13Z" fill="#0a66c2"/>
  </g>
</svg>
